<svg id="Hamilton" xmlns="http://www.w3.org/2000/svg" viewBox="0 0 850.39 211.21"><defs><style>.cls-1,.cls-2{fill:#00467f;}.cls-2{fill-rule:evenodd;}</style></defs><title>HAM-ROB-Logo_RGB-blue</title><path class="cls-1" d="M430.64,210.28H424V150.56h26c13.76,0,20.87,6.12,20.87,18.08,0,9.89-5,15.83-14.66,17.54l16.36,24.1h-7.91l-15.38-23.65H430.64Zm19.07-29.68c9.62,0,14.39-4,14.39-12s-4.77-12-14.39-12H430.64v24Z" transform="translate(0 0)"/><path class="cls-1" d="M587.59,179.79c7.11,1.8,10.88,6.48,10.88,14.21,0,10.62-6.92,16.28-20.32,16.28H551.88V150.56h24c13.49,0,20.42,5.49,20.42,15.83,0,6.75-3,11.07-8.73,13.22ZM575.45,177c9.53,0,14.3-3.51,14.3-10.26s-4.77-10.16-13.94-10.16H558.54V177ZM578,204.26q13.75,0,13.76-10.53c0-7.1-4.68-10.7-14.12-10.7H558.54v21.23Z" transform="translate(0 0)"/><path class="cls-1" d="M698.31,210.28h-6.66V156.59h-20.5v-6h47.48v6H698.31Z" transform="translate(0 0)"/><path class="cls-1" d="M728.17,150.56h6.65v59.72h-6.65Z" transform="translate(0 0)"/><path class="cls-1" d="M510.05,149.64a30.79,30.79,0,1,0,30.79,30.78A30.78,30.78,0,0,0,510.05,149.64Zm0,54.88a24.1,24.1,0,1,1,24.1-24.1A24.1,24.1,0,0,1,510.05,204.52Z" transform="translate(0 0)"/><path class="cls-1" d="M636,149.64a30.79,30.79,0,1,0,30.79,30.78A30.78,30.78,0,0,0,636,149.64Zm0,54.88a24.1,24.1,0,1,1,24.1-24.1A24.09,24.09,0,0,1,636,204.52Z" transform="translate(0 0)"/><path class="cls-1" d="M828.54,176.65c-12.23-1.26-15.92-3.87-15.92-9.72,0-6.74,6.21-11.24,15.29-11.24a30,30,0,0,1,15.11,3.6l4.31-4.32c-3.86-3.33-11.15-5.31-19.33-5.31-13.31,0-22,6.93-22,17.54,0,9.9,5.22,14.48,21,16.1,12.77,1.35,16.73,4.23,16.73,10.61,0,7-5.85,11.25-15.74,11.25-7.19,0-13.39-1.63-18.29-4.75l-4.29,4.28v0c5,4.22,12.87,6.47,22.58,6.47,13.94,0,22.39-6.56,22.39-17.36C850.39,183.21,844.82,178.26,828.54,176.65Z" transform="translate(0 0)"/><path class="cls-1" d="M791.13,199.41a24.09,24.09,0,1,1,0-38l4.77-4.76a30.79,30.79,0,1,0,0,47.51Z" transform="translate(0 0)"/><g id="_Group_" data-name="&lt;Group&gt;"><polygon id="_Path_" data-name="&lt;Path&gt;" class="cls-2" points="0.17 1.84 0.17 96.49 33.22 96.49 33.22 58.7 85.59 58.7 85.59 96.49 118.84 96.49 118.84 1.84 85.59 1.84 85.59 35.66 33.22 35.66 33.22 1.84 0.17 1.84"/><polygon id="_Path_2" data-name="&lt;Path&gt;" class="cls-2" points="337.93 96.49 319.62 96.49 291.89 27.53 291.89 96.49 261.96 96.49 261.96 1.84 313.92 1.84 337.93 62.66 361.94 1.84 413.91 1.84 413.91 96.49 383.99 96.49 383.99 27.53 356.04 96.49 337.93 96.49"/><polygon id="_Path_3" data-name="&lt;Path&gt;" class="cls-2" points="731.99 1.79 732.34 96.64 762.03 96.64 762.03 35.79 807.42 96.64 850.21 96.64 850.21 1.99 818.34 1.99 818.34 60.37 773.61 1.81 731.99 1.79"/><polygon id="_Path_4" data-name="&lt;Path&gt;" class="cls-2" points="535.53 1.84 535.53 26.06 564.43 26.06 564.43 96.49 598.07 96.49 598.07 26.06 626.79 26.06 626.79 1.84 535.53 1.84"/><polygon id="_Path_5" data-name="&lt;Path&gt;" class="cls-2" points="466.8 1.84 466.8 96.49 555.75 96.49 555.75 68.79 500.45 68.79 500.45 1.84 466.8 1.84"/><rect id="_Path_6" data-name="&lt;Path&gt;" class="cls-1" x="423.98" y="1.84" width="33.25" height="94.65"/><path id="_Compound_Path_" data-name="&lt;Compound Path&gt;" class="cls-2" d="M726,49.43A49.45,49.45,0,1,1,676.58,0,49.45,49.45,0,0,1,726,49.43ZM712,70.15l-.11.8c-.42,3-9.79,11.81-17.29,11.81a8.34,8.34,0,0,1-2-.23L685.77,92l-2.39-1.74,6.5-9.44a9.91,9.91,0,0,1-3-7.35v-2.9l.36-3.45c.18-2,1-8.07,1.16-9.66l-12.66,1.6C672.81,71,661.32,76.32,651.18,76.32c-5.44,0-10.1-1.58-12.15-4.13A5.07,5.07,0,0,1,638,67.72c.88-4,1.62-4.82,2.74-6.08.2-.23.41-.47.64-.75,1.53-1.83,2.68-2.56,5.34-3.83,3.1-1.49,8.88-1.94,9.13-2l13.74-1.66L671,43.8c.06-.29,1.42-6.65,2.21-8.9.26-.73.79-2.43,1.41-4.4,1.29-4.12,2.35-7.48,2.92-8.92l-1.82.52c-2,.58-4.8,1.36-6.81,2.1-1.36.5-5.08.76-11,.76-3.8,0-7.15-.11-7.18-.11l-.14,0c-.93,0-3.84,1.2-4.4,2.52a1,1,0,0,0,.28,1.18c1.41,1.33,7.56,3.24,12.05,4.63,5.57,1.73,6.41,2.06,6.44,2.55a.4.4,0,0,1-.26.38,31.33,31.33,0,0,1-6.22,2.75l-.1,0-.48-.14c-6.68-1.89-15-4.76-16.61-7.68a2,2,0,0,1-.22-1.53,13.83,13.83,0,0,1,4.25-6.29h0c0-.21,0-.79,3.24-2.44,4.45-2.27,5.74-2.17,6.09-2.09l17-.23,12.64-.67-.14.41c0,.14-4.5,13.41-5.68,17.56-.92,3.87-2.17,14.74-2.41,16.9L689.34,51c.48-1.53,3.86-12.22,4.41-15.64.42-2,1.58-5.38,2.7-8.66a71.09,71.09,0,0,0,2.19-7l0-.17,6-2.22.13.12c8.71,7.6,2.52,24-.33,29.17-4,7.52-7.61,9.1-9.57,10a3.19,3.19,0,0,0-1.2.68,27.1,27.1,0,0,0-.8,9c0,2.89.81,5.31,2.22,6.73l8.94-13.87,2.09,1.61-8.92,14a8.18,8.18,0,0,0,3.63.8c3.29,0,6.82-1.64,10.49-4.87ZM701.79,42.3c3.14-6.47,3.22-10.28,3-13.63-.16-4.89-3-5.47-3.76-5.54l-6.43,26.43C696.41,48,701,43.93,701.79,42.3ZM668.9,59.68a8.79,8.79,0,0,0-1.42.18c-3,.62-16.75,2-17.33,2.08-.34,0-7.81.27-8.44,7.11l0,.26a2.89,2.89,0,0,0,.53,2.4c.93,1,3.11,1.54,6.47,1.54,3.16,0,12.09-1.23,15.49-4.29,3.78-3.14,4.64-8.36,4.77-9.28Z" transform="translate(0 0)"/><path id="_Compound_Path_2" data-name="&lt;Compound Path&gt;" class="cls-2" d="M173.75,2.05l-51,94.44h34.83l9.67-17.23c.19.17,46.28,0,46.28,0L223,96.49h35.61L209,2.05H173.75m17.52,27.56L177.89,57.94h26.76Z" transform="translate(0 0)"/></g><rect class="cls-1" y="121.63" width="850.29" height="3.82"/></svg>